<mxfile host="app.diagrams.net" modified="2021-06-24T19:12:18.938Z" agent="5.0 (Windows NT 10.0; Win64; x64) AppleWebKit/537.36 (KHTML, like Gecko) Chrome/91.0.4472.114 Safari/537.36" etag="Yw62HnPYFAMt9fD7ZFQ4" version="14.8.0" type="github">
  <diagram id="pUHKSoeqSPnH9aFKWTla" name="Page-1">
    <mxGraphModel dx="1022" dy="468" grid="1" gridSize="10" guides="1" tooltips="1" connect="1" arrows="1" fold="1" page="1" pageScale="1" pageWidth="850" pageHeight="1100" math="0" shadow="0">
      <root>
        <mxCell id="0" />
        <mxCell id="1" parent="0" />
        <mxCell id="HmO050Vw17ycaXZfuZyL-1" value="From Interview or contract &lt;br&gt;set-up" style="ellipse;whiteSpace=wrap;html=1;aspect=fixed;" vertex="1" parent="1">
          <mxGeometry x="30" y="40" width="80" height="80" as="geometry" />
        </mxCell>
        <mxCell id="HmO050Vw17ycaXZfuZyL-2" value="" style="endArrow=classic;html=1;exitX=1;exitY=0.5;exitDx=0;exitDy=0;" edge="1" parent="1" source="HmO050Vw17ycaXZfuZyL-1">
          <mxGeometry width="50" height="50" relative="1" as="geometry">
            <mxPoint x="130" y="80" as="sourcePoint" />
            <mxPoint x="170" y="80" as="targetPoint" />
          </mxGeometry>
        </mxCell>
        <mxCell id="HmO050Vw17ycaXZfuZyL-3" value="Placement coordinator looks for available candidates in &quot;waiting room&quot;" style="rounded=1;whiteSpace=wrap;html=1;" vertex="1" parent="1">
          <mxGeometry x="170" y="50" width="120" height="60" as="geometry" />
        </mxCell>
        <mxCell id="HmO050Vw17ycaXZfuZyL-5" value="" style="endArrow=classic;html=1;" edge="1" parent="1">
          <mxGeometry width="50" height="50" relative="1" as="geometry">
            <mxPoint x="230" y="110" as="sourcePoint" />
            <mxPoint x="230" y="160" as="targetPoint" />
          </mxGeometry>
        </mxCell>
        <mxCell id="HmO050Vw17ycaXZfuZyL-6" value="Is a &lt;br&gt;candidate &lt;br&gt;in waiting room available?" style="rhombus;whiteSpace=wrap;html=1;" vertex="1" parent="1">
          <mxGeometry x="175" y="160" width="110" height="110" as="geometry" />
        </mxCell>
        <mxCell id="HmO050Vw17ycaXZfuZyL-7" value="Yes" style="endArrow=classic;html=1;exitX=1;exitY=0.5;exitDx=0;exitDy=0;entryX=0.572;entryY=1.009;entryDx=0;entryDy=0;entryPerimeter=0;" edge="1" parent="1" source="HmO050Vw17ycaXZfuZyL-6" target="HmO050Vw17ycaXZfuZyL-11">
          <mxGeometry width="50" height="50" relative="1" as="geometry">
            <mxPoint x="400" y="210" as="sourcePoint" />
            <mxPoint x="370" y="215" as="targetPoint" />
            <Array as="points">
              <mxPoint x="389" y="215" />
            </Array>
          </mxGeometry>
        </mxCell>
        <mxCell id="HmO050Vw17ycaXZfuZyL-8" value="" style="endArrow=classic;html=1;" edge="1" parent="1">
          <mxGeometry width="50" height="50" relative="1" as="geometry">
            <mxPoint x="175" y="214.5" as="sourcePoint" />
            <mxPoint x="105" y="214.5" as="targetPoint" />
          </mxGeometry>
        </mxCell>
        <mxCell id="HmO050Vw17ycaXZfuZyL-9" value="No" style="edgeLabel;html=1;align=center;verticalAlign=middle;resizable=0;points=[];" vertex="1" connectable="0" parent="HmO050Vw17ycaXZfuZyL-8">
          <mxGeometry x="-0.2762" relative="1" as="geometry">
            <mxPoint as="offset" />
          </mxGeometry>
        </mxCell>
        <mxCell id="HmO050Vw17ycaXZfuZyL-10" value="Check new applications" style="ellipse;whiteSpace=wrap;html=1;aspect=fixed;" vertex="1" parent="1">
          <mxGeometry x="35" y="180" width="70" height="70" as="geometry" />
        </mxCell>
        <mxCell id="HmO050Vw17ycaXZfuZyL-11" value="Placement coordinator contacts the applicants to determine who &quot;fit&quot;&lt;br&gt;the availability and puts the others in the queue in the event of a last minute drop out (and updates the application form and profile in Trello if needed)" style="rounded=1;whiteSpace=wrap;html=1;" vertex="1" parent="1">
          <mxGeometry x="320" y="10" width="120" height="180" as="geometry" />
        </mxCell>
        <mxCell id="HmO050Vw17ycaXZfuZyL-12" value="" style="endArrow=classic;html=1;exitX=1.006;exitY=0.43;exitDx=0;exitDy=0;exitPerimeter=0;" edge="1" parent="1" source="HmO050Vw17ycaXZfuZyL-11">
          <mxGeometry width="50" height="50" relative="1" as="geometry">
            <mxPoint x="470" y="70" as="sourcePoint" />
            <mxPoint x="480" y="87" as="targetPoint" />
          </mxGeometry>
        </mxCell>
        <mxCell id="HmO050Vw17ycaXZfuZyL-13" value="Placement coordinator communicates to the HR Admin support that the applicant was places and the HR Admin support sends the offer letter via Docusign with Start and End Dates, and onboarding form" style="rounded=1;whiteSpace=wrap;html=1;" vertex="1" parent="1">
          <mxGeometry x="480" y="10" width="120" height="190" as="geometry" />
        </mxCell>
        <mxCell id="HmO050Vw17ycaXZfuZyL-14" value="" style="endArrow=classic;html=1;" edge="1" parent="1" target="HmO050Vw17ycaXZfuZyL-15">
          <mxGeometry width="50" height="50" relative="1" as="geometry">
            <mxPoint x="590" y="90" as="sourcePoint" />
            <mxPoint x="640" y="90" as="targetPoint" />
          </mxGeometry>
        </mxCell>
        <mxCell id="HmO050Vw17ycaXZfuZyL-15" value="The applicant completes the Onboarding form if in person (and signs the contract)" style="rounded=1;whiteSpace=wrap;html=1;" vertex="1" parent="1">
          <mxGeometry x="630" y="50" width="120" height="80" as="geometry" />
        </mxCell>
        <mxCell id="HmO050Vw17ycaXZfuZyL-16" value="" style="endArrow=classic;html=1;" edge="1" parent="1">
          <mxGeometry width="50" height="50" relative="1" as="geometry">
            <mxPoint x="750" y="90" as="sourcePoint" />
            <mxPoint x="800" y="90" as="targetPoint" />
          </mxGeometry>
        </mxCell>
        <mxCell id="HmO050Vw17ycaXZfuZyL-17" value="Placement coordinator sets up interventionist on Slack" style="rounded=1;whiteSpace=wrap;html=1;" vertex="1" parent="1">
          <mxGeometry x="800" y="60" width="120" height="60" as="geometry" />
        </mxCell>
        <mxCell id="HmO050Vw17ycaXZfuZyL-18" value="" style="endArrow=classic;html=1;exitX=0.5;exitY=1;exitDx=0;exitDy=0;" edge="1" parent="1" source="HmO050Vw17ycaXZfuZyL-17">
          <mxGeometry width="50" height="50" relative="1" as="geometry">
            <mxPoint x="620" y="130" as="sourcePoint" />
            <mxPoint x="860" y="160" as="targetPoint" />
            <Array as="points" />
          </mxGeometry>
        </mxCell>
        <mxCell id="HmO050Vw17ycaXZfuZyL-19" value="The people Dir. tasks in Asana&lt;br&gt;Finance Dir to add applicant in Gusto" style="rounded=1;whiteSpace=wrap;html=1;" vertex="1" parent="1">
          <mxGeometry x="800" y="160" width="120" height="60" as="geometry" />
        </mxCell>
        <mxCell id="HmO050Vw17ycaXZfuZyL-20" value="" style="endArrow=classic;html=1;exitX=0.5;exitY=1;exitDx=0;exitDy=0;" edge="1" parent="1" source="HmO050Vw17ycaXZfuZyL-19">
          <mxGeometry width="50" height="50" relative="1" as="geometry">
            <mxPoint x="620" y="320" as="sourcePoint" />
            <mxPoint x="860" y="260" as="targetPoint" />
          </mxGeometry>
        </mxCell>
        <mxCell id="HmO050Vw17ycaXZfuZyL-21" value="People Dir initiates PETs process" style="rounded=1;whiteSpace=wrap;html=1;" vertex="1" parent="1">
          <mxGeometry x="800" y="260" width="120" height="60" as="geometry" />
        </mxCell>
        <mxCell id="HmO050Vw17ycaXZfuZyL-22" value="" style="endArrow=classic;html=1;exitX=0.5;exitY=1;exitDx=0;exitDy=0;" edge="1" parent="1" source="HmO050Vw17ycaXZfuZyL-21">
          <mxGeometry width="50" height="50" relative="1" as="geometry">
            <mxPoint x="620" y="310" as="sourcePoint" />
            <mxPoint x="860" y="360" as="targetPoint" />
          </mxGeometry>
        </mxCell>
        <mxCell id="HmO050Vw17ycaXZfuZyL-23" value="" style="endArrow=classic;html=1;exitX=0;exitY=0.5;exitDx=0;exitDy=0;" edge="1" parent="1" source="HmO050Vw17ycaXZfuZyL-21">
          <mxGeometry width="50" height="50" relative="1" as="geometry">
            <mxPoint x="620" y="310" as="sourcePoint" />
            <mxPoint x="750" y="290" as="targetPoint" />
          </mxGeometry>
        </mxCell>
        <mxCell id="HmO050Vw17ycaXZfuZyL-24" value="Is the &lt;br&gt;candidate an Interventionists Supervisor?" style="rhombus;whiteSpace=wrap;html=1;" vertex="1" parent="1">
          <mxGeometry x="640" y="240" width="110" height="100" as="geometry" />
        </mxCell>
        <mxCell id="HmO050Vw17ycaXZfuZyL-28" value="Yes" style="endArrow=classic;html=1;exitX=0;exitY=0.5;exitDx=0;exitDy=0;" edge="1" parent="1" source="HmO050Vw17ycaXZfuZyL-24">
          <mxGeometry width="50" height="50" relative="1" as="geometry">
            <mxPoint x="510" y="300" as="sourcePoint" />
            <mxPoint x="600" y="290" as="targetPoint" />
          </mxGeometry>
        </mxCell>
        <mxCell id="HmO050Vw17ycaXZfuZyL-29" value="People Director&lt;br&gt;sends an Asana&lt;br&gt;task to&amp;nbsp;&lt;br&gt;Interventionists&amp;nbsp;&lt;br&gt;Admin to complete&lt;br&gt;Supervisor 30mins&amp;nbsp;&lt;br&gt;training on Day 1" style="rounded=1;whiteSpace=wrap;html=1;" vertex="1" parent="1">
          <mxGeometry x="480" y="235" width="120" height="110" as="geometry" />
        </mxCell>
        <mxCell id="HmO050Vw17ycaXZfuZyL-30" value="" style="endArrow=classic;html=1;exitX=0.5;exitY=1;exitDx=0;exitDy=0;" edge="1" parent="1" source="HmO050Vw17ycaXZfuZyL-24">
          <mxGeometry width="50" height="50" relative="1" as="geometry">
            <mxPoint x="620" y="330" as="sourcePoint" />
            <mxPoint x="380" y="400" as="targetPoint" />
            <Array as="points">
              <mxPoint x="695" y="380" />
              <mxPoint x="380" y="380" />
            </Array>
          </mxGeometry>
        </mxCell>
        <mxCell id="HmO050Vw17ycaXZfuZyL-31" value="The People Dir. sends Asana task to Finance, Training and Sales Admin. (and cc Interventionists Admin.) to create the placement schedule and to add the applicant in WIW" style="rounded=1;whiteSpace=wrap;html=1;" vertex="1" parent="1">
          <mxGeometry x="320" y="400" width="120" height="130" as="geometry" />
        </mxCell>
        <mxCell id="HmO050Vw17ycaXZfuZyL-32" value="" style="endArrow=classic;html=1;" edge="1" parent="1">
          <mxGeometry width="50" height="50" relative="1" as="geometry">
            <mxPoint x="440" y="470" as="sourcePoint" />
            <mxPoint x="490" y="470" as="targetPoint" />
          </mxGeometry>
        </mxCell>
        <mxCell id="HmO050Vw17ycaXZfuZyL-33" value="Training Program&lt;br&gt;Admin. checks if the applicant has completed trainual" style="rounded=1;whiteSpace=wrap;html=1;" vertex="1" parent="1">
          <mxGeometry x="490" y="440" width="120" height="60" as="geometry" />
        </mxCell>
        <mxCell id="HmO050Vw17ycaXZfuZyL-34" value="Applicant completes the fingerprinting process" style="rounded=1;whiteSpace=wrap;html=1;" vertex="1" parent="1">
          <mxGeometry x="800" y="360" width="120" height="60" as="geometry" />
        </mxCell>
        <mxCell id="HmO050Vw17ycaXZfuZyL-35" value="" style="endArrow=classic;html=1;exitX=0.5;exitY=1;exitDx=0;exitDy=0;" edge="1" parent="1" source="HmO050Vw17ycaXZfuZyL-34">
          <mxGeometry width="50" height="50" relative="1" as="geometry">
            <mxPoint x="620" y="550" as="sourcePoint" />
            <mxPoint x="860" y="440" as="targetPoint" />
          </mxGeometry>
        </mxCell>
        <mxCell id="HmO050Vw17ycaXZfuZyL-36" value="People Dir. checks daily for PETs clearance&amp;nbsp;" style="rounded=1;whiteSpace=wrap;html=1;" vertex="1" parent="1">
          <mxGeometry x="800" y="440" width="120" height="60" as="geometry" />
        </mxCell>
        <mxCell id="HmO050Vw17ycaXZfuZyL-37" value="" style="endArrow=classic;html=1;exitX=0.5;exitY=1;exitDx=0;exitDy=0;" edge="1" parent="1" source="HmO050Vw17ycaXZfuZyL-36">
          <mxGeometry width="50" height="50" relative="1" as="geometry">
            <mxPoint x="620" y="530" as="sourcePoint" />
            <mxPoint x="860" y="530" as="targetPoint" />
          </mxGeometry>
        </mxCell>
        <mxCell id="HmO050Vw17ycaXZfuZyL-38" value="Put employee in &quot;PETS cleared&quot;&lt;br&gt;status" style="rounded=1;whiteSpace=wrap;html=1;" vertex="1" parent="1">
          <mxGeometry x="800" y="530" width="120" height="60" as="geometry" />
        </mxCell>
      </root>
    </mxGraphModel>
  </diagram>
</mxfile>
